<mxfile host="app.diagrams.net" agent="Mozilla/5.0 (Macintosh; Intel Mac OS X 10_15_7) AppleWebKit/605.1.15 (KHTML, like Gecko) Version/17.5 Safari/605.1.15" version="24.8.4">
  <diagram name="Страница — 1" id="hvhdByyQhu3TahGWir3a">
    <mxGraphModel dx="1413" dy="1973" grid="1" gridSize="10" guides="1" tooltips="1" connect="1" arrows="1" fold="1" page="1" pageScale="1" pageWidth="1100" pageHeight="2069" math="0" shadow="0">
      <root>
        <mxCell id="0" />
        <mxCell id="1" parent="0" />
        <mxCell id="2bTAK56nUmkrMSHZuo6N-2" value="" style="rounded=0;whiteSpace=wrap;html=1;fillColor=none;" vertex="1" parent="1">
          <mxGeometry x="240" y="80" width="480" height="70" as="geometry" />
        </mxCell>
        <mxCell id="2bTAK56nUmkrMSHZuo6N-3" value="&lt;b&gt;Я, как пользователь&lt;/b&gt; мобильного приложения социальной сети «ВКонтакте»,&lt;div&gt;&lt;b&gt;хочу&lt;/b&gt; пересылать пост из ленты в диалоги с друзьями,&lt;/div&gt;&lt;div&gt;&lt;b&gt;чтобы&lt;/b&gt; делиться с ними информацией.&lt;/div&gt;" style="text;html=1;align=left;verticalAlign=middle;whiteSpace=wrap;rounded=0;" vertex="1" parent="1">
          <mxGeometry x="250" y="90" width="460" height="60" as="geometry" />
        </mxCell>
        <mxCell id="2bTAK56nUmkrMSHZuo6N-4" value="Пользователь" style="rounded=0;whiteSpace=wrap;html=1;" vertex="1" parent="1">
          <mxGeometry x="20" y="370" width="120" height="60" as="geometry" />
        </mxCell>
        <mxCell id="2bTAK56nUmkrMSHZuo6N-5" value="Пользователь" style="rounded=0;whiteSpace=wrap;html=1;" vertex="1" parent="1">
          <mxGeometry x="440" y="220" width="120" height="60" as="geometry" />
        </mxCell>
        <mxCell id="2bTAK56nUmkrMSHZuo6N-6" value="1. Имя&lt;div&gt;2. Фотография профиля&lt;/div&gt;&lt;div&gt;3. Количество друзей&lt;/div&gt;&lt;div&gt;4. Список друзей&lt;/div&gt;&lt;div&gt;5. Разрешение получать посты&lt;/div&gt;&lt;div&gt;6. Возраст&lt;/div&gt;&lt;div&gt;7. Пол&lt;/div&gt;&lt;div&gt;8. Страна&lt;/div&gt;&lt;div&gt;9. Номер телефона&lt;/div&gt;" style="text;html=1;align=left;verticalAlign=middle;whiteSpace=wrap;rounded=0;" vertex="1" parent="1">
          <mxGeometry x="440" y="350" width="160" height="30" as="geometry" />
        </mxCell>
        <mxCell id="2bTAK56nUmkrMSHZuo6N-7" value="Пост" style="rounded=0;whiteSpace=wrap;html=1;" vertex="1" parent="1">
          <mxGeometry x="840" y="220" width="120" height="60" as="geometry" />
        </mxCell>
        <mxCell id="2bTAK56nUmkrMSHZuo6N-8" value="1. Контент&lt;div&gt;2. Время публикации&lt;/div&gt;&lt;div&gt;3. Количество лайков&lt;/div&gt;" style="text;html=1;align=left;verticalAlign=middle;whiteSpace=wrap;rounded=0;" vertex="1" parent="1">
          <mxGeometry x="840" y="300" width="160" height="30" as="geometry" />
        </mxCell>
        <mxCell id="2bTAK56nUmkrMSHZuo6N-9" value="Сообщество" style="rounded=0;whiteSpace=wrap;html=1;" vertex="1" parent="1">
          <mxGeometry x="640" y="220" width="120" height="60" as="geometry" />
        </mxCell>
        <mxCell id="2bTAK56nUmkrMSHZuo6N-10" value="1. Название сообщества&lt;div&gt;2. Фотография сообщества&lt;/div&gt;&lt;div&gt;3. Количество публикаций&lt;/div&gt;&lt;div&gt;4. Разрешение отправки постов&lt;/div&gt;" style="text;html=1;align=left;verticalAlign=middle;whiteSpace=wrap;rounded=0;" vertex="1" parent="1">
          <mxGeometry x="640" y="310" width="160" height="30" as="geometry" />
        </mxCell>
        <mxCell id="2bTAK56nUmkrMSHZuo6N-13" value="" style="endArrow=classic;html=1;rounded=0;exitX=1;exitY=0.5;exitDx=0;exitDy=0;entryX=0;entryY=0.5;entryDx=0;entryDy=0;" edge="1" parent="1" source="2bTAK56nUmkrMSHZuo6N-4" target="2bTAK56nUmkrMSHZuo6N-14">
          <mxGeometry width="50" height="50" relative="1" as="geometry">
            <mxPoint x="160" y="310" as="sourcePoint" />
            <mxPoint x="160" y="360" as="targetPoint" />
          </mxGeometry>
        </mxCell>
        <mxCell id="2bTAK56nUmkrMSHZuo6N-15" value="Отправляет" style="edgeLabel;html=1;align=center;verticalAlign=middle;resizable=0;points=[];" vertex="1" connectable="0" parent="2bTAK56nUmkrMSHZuo6N-13">
          <mxGeometry x="-0.2" y="-3" relative="1" as="geometry">
            <mxPoint as="offset" />
          </mxGeometry>
        </mxCell>
        <mxCell id="2bTAK56nUmkrMSHZuo6N-14" value="Пост" style="rounded=0;whiteSpace=wrap;html=1;" vertex="1" parent="1">
          <mxGeometry x="240" y="370" width="120" height="60" as="geometry" />
        </mxCell>
        <mxCell id="2bTAK56nUmkrMSHZuo6N-16" value="" style="endArrow=classic;html=1;rounded=0;entryX=0.5;entryY=1;entryDx=0;entryDy=0;" edge="1" parent="1" target="2bTAK56nUmkrMSHZuo6N-14">
          <mxGeometry width="50" height="50" relative="1" as="geometry">
            <mxPoint x="300" y="520" as="sourcePoint" />
            <mxPoint x="160" y="520" as="targetPoint" />
          </mxGeometry>
        </mxCell>
        <mxCell id="2bTAK56nUmkrMSHZuo6N-21" value="Получает" style="edgeLabel;html=1;align=center;verticalAlign=middle;resizable=0;points=[];" vertex="1" connectable="0" parent="2bTAK56nUmkrMSHZuo6N-16">
          <mxGeometry x="-0.1556" y="2" relative="1" as="geometry">
            <mxPoint as="offset" />
          </mxGeometry>
        </mxCell>
        <mxCell id="2bTAK56nUmkrMSHZuo6N-17" value="Сообщество" style="rounded=0;whiteSpace=wrap;html=1;" vertex="1" parent="1">
          <mxGeometry x="240" y="220" width="120" height="60" as="geometry" />
        </mxCell>
        <mxCell id="2bTAK56nUmkrMSHZuo6N-18" value="" style="endArrow=classic;html=1;rounded=0;exitX=0.5;exitY=1;exitDx=0;exitDy=0;entryX=0.5;entryY=0;entryDx=0;entryDy=0;" edge="1" parent="1" source="2bTAK56nUmkrMSHZuo6N-17" target="2bTAK56nUmkrMSHZuo6N-14">
          <mxGeometry width="50" height="50" relative="1" as="geometry">
            <mxPoint x="-30" y="380" as="sourcePoint" />
            <mxPoint x="20" y="330" as="targetPoint" />
            <Array as="points" />
          </mxGeometry>
        </mxCell>
        <mxCell id="2bTAK56nUmkrMSHZuo6N-19" value="Создаёт" style="edgeLabel;html=1;align=center;verticalAlign=middle;resizable=0;points=[];" vertex="1" connectable="0" parent="2bTAK56nUmkrMSHZuo6N-18">
          <mxGeometry x="-0.6111" y="2" relative="1" as="geometry">
            <mxPoint as="offset" />
          </mxGeometry>
        </mxCell>
        <mxCell id="2bTAK56nUmkrMSHZuo6N-20" value="Пользователь (друг)" style="rounded=0;whiteSpace=wrap;html=1;" vertex="1" parent="1">
          <mxGeometry x="240" y="525" width="120" height="60" as="geometry" />
        </mxCell>
        <mxCell id="2bTAK56nUmkrMSHZuo6N-22" value="Объект Пользователь" style="text;html=1;align=left;verticalAlign=middle;whiteSpace=wrap;rounded=0;fontStyle=1" vertex="1" parent="1">
          <mxGeometry x="440" y="450" width="190" height="30" as="geometry" />
        </mxCell>
        <mxCell id="2bTAK56nUmkrMSHZuo6N-49" value="" style="shape=table;startSize=0;container=1;collapsible=0;childLayout=tableLayout;fontSize=14;" vertex="1" parent="1">
          <mxGeometry x="440" y="480" width="460" height="674" as="geometry" />
        </mxCell>
        <mxCell id="2bTAK56nUmkrMSHZuo6N-50" value="" style="shape=tableRow;horizontal=0;startSize=0;swimlaneHead=0;swimlaneBody=0;strokeColor=inherit;top=0;left=0;bottom=0;right=0;collapsible=0;dropTarget=0;fillColor=none;points=[[0,0.5],[1,0.5]];portConstraint=eastwest;fontSize=16;" vertex="1" parent="2bTAK56nUmkrMSHZuo6N-49">
          <mxGeometry width="460" height="46" as="geometry" />
        </mxCell>
        <mxCell id="2bTAK56nUmkrMSHZuo6N-51" value="Родительская сущность" style="shape=partialRectangle;html=1;whiteSpace=wrap;connectable=0;strokeColor=inherit;overflow=hidden;fillColor=none;top=0;left=0;bottom=0;right=0;pointerEvents=1;fontSize=16;" vertex="1" parent="2bTAK56nUmkrMSHZuo6N-50">
          <mxGeometry width="115" height="46" as="geometry">
            <mxRectangle width="115" height="46" as="alternateBounds" />
          </mxGeometry>
        </mxCell>
        <mxCell id="2bTAK56nUmkrMSHZuo6N-52" value="Атрибут" style="shape=partialRectangle;html=1;whiteSpace=wrap;connectable=0;strokeColor=inherit;overflow=hidden;fillColor=none;top=0;left=0;bottom=0;right=0;pointerEvents=1;fontSize=16;" vertex="1" parent="2bTAK56nUmkrMSHZuo6N-50">
          <mxGeometry x="115" width="115" height="46" as="geometry">
            <mxRectangle width="115" height="46" as="alternateBounds" />
          </mxGeometry>
        </mxCell>
        <mxCell id="2bTAK56nUmkrMSHZuo6N-53" value="Описание" style="shape=partialRectangle;html=1;whiteSpace=wrap;connectable=0;strokeColor=inherit;overflow=hidden;fillColor=none;top=0;left=0;bottom=0;right=0;pointerEvents=1;fontSize=16;" vertex="1" parent="2bTAK56nUmkrMSHZuo6N-50">
          <mxGeometry x="230" width="230" height="46" as="geometry">
            <mxRectangle width="230" height="46" as="alternateBounds" />
          </mxGeometry>
        </mxCell>
        <mxCell id="2bTAK56nUmkrMSHZuo6N-54" value="" style="shape=tableRow;horizontal=0;startSize=0;swimlaneHead=0;swimlaneBody=0;strokeColor=inherit;top=0;left=0;bottom=0;right=0;collapsible=0;dropTarget=0;fillColor=none;points=[[0,0.5],[1,0.5]];portConstraint=eastwest;fontSize=16;" vertex="1" parent="2bTAK56nUmkrMSHZuo6N-49">
          <mxGeometry y="46" width="460" height="62" as="geometry" />
        </mxCell>
        <mxCell id="2bTAK56nUmkrMSHZuo6N-55" value="Пользователь" style="shape=partialRectangle;html=1;whiteSpace=wrap;connectable=0;strokeColor=inherit;overflow=hidden;fillColor=none;top=0;left=0;bottom=0;right=0;pointerEvents=1;fontSize=14;" vertex="1" parent="2bTAK56nUmkrMSHZuo6N-54">
          <mxGeometry width="115" height="62" as="geometry">
            <mxRectangle width="115" height="62" as="alternateBounds" />
          </mxGeometry>
        </mxCell>
        <mxCell id="2bTAK56nUmkrMSHZuo6N-56" value="" style="shape=partialRectangle;html=1;whiteSpace=wrap;connectable=0;strokeColor=inherit;overflow=hidden;fillColor=none;top=0;left=0;bottom=0;right=0;pointerEvents=1;fontSize=16;" vertex="1" parent="2bTAK56nUmkrMSHZuo6N-54">
          <mxGeometry x="115" width="115" height="62" as="geometry">
            <mxRectangle width="115" height="62" as="alternateBounds" />
          </mxGeometry>
        </mxCell>
        <mxCell id="2bTAK56nUmkrMSHZuo6N-57" value="&lt;font style=&quot;font-size: 14px;&quot;&gt;Объект пользователя, отправляет и получает посты.&lt;/font&gt;&lt;div style=&quot;font-size: 14px;&quot;&gt;&lt;font style=&quot;font-size: 14px;&quot;&gt;&lt;br&gt;&lt;/font&gt;&lt;/div&gt;" style="shape=partialRectangle;html=1;whiteSpace=wrap;connectable=0;strokeColor=inherit;overflow=hidden;fillColor=none;top=0;left=0;bottom=0;right=0;pointerEvents=1;fontSize=16;" vertex="1" parent="2bTAK56nUmkrMSHZuo6N-54">
          <mxGeometry x="230" width="230" height="62" as="geometry">
            <mxRectangle width="230" height="62" as="alternateBounds" />
          </mxGeometry>
        </mxCell>
        <mxCell id="2bTAK56nUmkrMSHZuo6N-58" value="" style="shape=tableRow;horizontal=0;startSize=0;swimlaneHead=0;swimlaneBody=0;strokeColor=inherit;top=0;left=0;bottom=0;right=0;collapsible=0;dropTarget=0;fillColor=none;points=[[0,0.5],[1,0.5]];portConstraint=eastwest;fontSize=16;" vertex="1" parent="2bTAK56nUmkrMSHZuo6N-49">
          <mxGeometry y="108" width="460" height="71" as="geometry" />
        </mxCell>
        <mxCell id="2bTAK56nUmkrMSHZuo6N-59" value="" style="shape=partialRectangle;html=1;whiteSpace=wrap;connectable=0;strokeColor=inherit;overflow=hidden;fillColor=none;top=0;left=0;bottom=0;right=0;pointerEvents=1;fontSize=16;" vertex="1" parent="2bTAK56nUmkrMSHZuo6N-58">
          <mxGeometry width="115" height="71" as="geometry">
            <mxRectangle width="115" height="71" as="alternateBounds" />
          </mxGeometry>
        </mxCell>
        <mxCell id="2bTAK56nUmkrMSHZuo6N-60" value="user_name" style="shape=partialRectangle;html=1;whiteSpace=wrap;connectable=0;strokeColor=inherit;overflow=hidden;fillColor=none;top=0;left=0;bottom=0;right=0;pointerEvents=1;fontSize=14;" vertex="1" parent="2bTAK56nUmkrMSHZuo6N-58">
          <mxGeometry x="115" width="115" height="71" as="geometry">
            <mxRectangle width="115" height="71" as="alternateBounds" />
          </mxGeometry>
        </mxCell>
        <mxCell id="2bTAK56nUmkrMSHZuo6N-61" value="&lt;font style=&quot;font-size: 14px;&quot;&gt;Имя пользователя&lt;/font&gt;" style="shape=partialRectangle;html=1;whiteSpace=wrap;connectable=0;strokeColor=inherit;overflow=hidden;fillColor=none;top=0;left=0;bottom=0;right=0;pointerEvents=1;fontSize=16;" vertex="1" parent="2bTAK56nUmkrMSHZuo6N-58">
          <mxGeometry x="230" width="230" height="71" as="geometry">
            <mxRectangle width="230" height="71" as="alternateBounds" />
          </mxGeometry>
        </mxCell>
        <mxCell id="2bTAK56nUmkrMSHZuo6N-68" style="shape=tableRow;horizontal=0;startSize=0;swimlaneHead=0;swimlaneBody=0;strokeColor=inherit;top=0;left=0;bottom=0;right=0;collapsible=0;dropTarget=0;fillColor=none;points=[[0,0.5],[1,0.5]];portConstraint=eastwest;fontSize=16;" vertex="1" parent="2bTAK56nUmkrMSHZuo6N-49">
          <mxGeometry y="179" width="460" height="70" as="geometry" />
        </mxCell>
        <mxCell id="2bTAK56nUmkrMSHZuo6N-69" style="shape=partialRectangle;html=1;whiteSpace=wrap;connectable=0;strokeColor=inherit;overflow=hidden;fillColor=none;top=0;left=0;bottom=0;right=0;pointerEvents=1;fontSize=16;" vertex="1" parent="2bTAK56nUmkrMSHZuo6N-68">
          <mxGeometry width="115" height="70" as="geometry">
            <mxRectangle width="115" height="70" as="alternateBounds" />
          </mxGeometry>
        </mxCell>
        <mxCell id="2bTAK56nUmkrMSHZuo6N-70" value="user_avatar" style="shape=partialRectangle;html=1;whiteSpace=wrap;connectable=0;strokeColor=inherit;overflow=hidden;fillColor=none;top=0;left=0;bottom=0;right=0;pointerEvents=1;fontSize=14;" vertex="1" parent="2bTAK56nUmkrMSHZuo6N-68">
          <mxGeometry x="115" width="115" height="70" as="geometry">
            <mxRectangle width="115" height="70" as="alternateBounds" />
          </mxGeometry>
        </mxCell>
        <mxCell id="2bTAK56nUmkrMSHZuo6N-71" value="&lt;font style=&quot;font-size: 14px;&quot;&gt;Фотография пользователя&lt;/font&gt;" style="shape=partialRectangle;html=1;whiteSpace=wrap;connectable=0;strokeColor=inherit;overflow=hidden;fillColor=none;top=0;left=0;bottom=0;right=0;pointerEvents=1;fontSize=16;" vertex="1" parent="2bTAK56nUmkrMSHZuo6N-68">
          <mxGeometry x="230" width="230" height="70" as="geometry">
            <mxRectangle width="230" height="70" as="alternateBounds" />
          </mxGeometry>
        </mxCell>
        <mxCell id="2bTAK56nUmkrMSHZuo6N-76" style="shape=tableRow;horizontal=0;startSize=0;swimlaneHead=0;swimlaneBody=0;strokeColor=inherit;top=0;left=0;bottom=0;right=0;collapsible=0;dropTarget=0;fillColor=none;points=[[0,0.5],[1,0.5]];portConstraint=eastwest;fontSize=16;" vertex="1" parent="2bTAK56nUmkrMSHZuo6N-49">
          <mxGeometry y="249" width="460" height="71" as="geometry" />
        </mxCell>
        <mxCell id="2bTAK56nUmkrMSHZuo6N-77" style="shape=partialRectangle;html=1;whiteSpace=wrap;connectable=0;strokeColor=inherit;overflow=hidden;fillColor=none;top=0;left=0;bottom=0;right=0;pointerEvents=1;fontSize=16;" vertex="1" parent="2bTAK56nUmkrMSHZuo6N-76">
          <mxGeometry width="115" height="71" as="geometry">
            <mxRectangle width="115" height="71" as="alternateBounds" />
          </mxGeometry>
        </mxCell>
        <mxCell id="2bTAK56nUmkrMSHZuo6N-78" value="count_friends" style="shape=partialRectangle;html=1;whiteSpace=wrap;connectable=0;strokeColor=inherit;overflow=hidden;fillColor=none;top=0;left=0;bottom=0;right=0;pointerEvents=1;fontSize=14;" vertex="1" parent="2bTAK56nUmkrMSHZuo6N-76">
          <mxGeometry x="115" width="115" height="71" as="geometry">
            <mxRectangle width="115" height="71" as="alternateBounds" />
          </mxGeometry>
        </mxCell>
        <mxCell id="2bTAK56nUmkrMSHZuo6N-79" value="&lt;font style=&quot;font-size: 14px;&quot;&gt;Количество друзей&lt;/font&gt;" style="shape=partialRectangle;html=1;whiteSpace=wrap;connectable=0;strokeColor=inherit;overflow=hidden;fillColor=none;top=0;left=0;bottom=0;right=0;pointerEvents=1;fontSize=16;" vertex="1" parent="2bTAK56nUmkrMSHZuo6N-76">
          <mxGeometry x="230" width="230" height="71" as="geometry">
            <mxRectangle width="230" height="71" as="alternateBounds" />
          </mxGeometry>
        </mxCell>
        <mxCell id="2bTAK56nUmkrMSHZuo6N-189" style="shape=tableRow;horizontal=0;startSize=0;swimlaneHead=0;swimlaneBody=0;strokeColor=inherit;top=0;left=0;bottom=0;right=0;collapsible=0;dropTarget=0;fillColor=none;points=[[0,0.5],[1,0.5]];portConstraint=eastwest;fontSize=16;" vertex="1" parent="2bTAK56nUmkrMSHZuo6N-49">
          <mxGeometry y="320" width="460" height="71" as="geometry" />
        </mxCell>
        <mxCell id="2bTAK56nUmkrMSHZuo6N-190" style="shape=partialRectangle;html=1;whiteSpace=wrap;connectable=0;strokeColor=inherit;overflow=hidden;fillColor=none;top=0;left=0;bottom=0;right=0;pointerEvents=1;fontSize=16;" vertex="1" parent="2bTAK56nUmkrMSHZuo6N-189">
          <mxGeometry width="115" height="71" as="geometry">
            <mxRectangle width="115" height="71" as="alternateBounds" />
          </mxGeometry>
        </mxCell>
        <mxCell id="2bTAK56nUmkrMSHZuo6N-191" value="list_friends" style="shape=partialRectangle;html=1;whiteSpace=wrap;connectable=0;strokeColor=inherit;overflow=hidden;fillColor=none;top=0;left=0;bottom=0;right=0;pointerEvents=1;fontSize=14;" vertex="1" parent="2bTAK56nUmkrMSHZuo6N-189">
          <mxGeometry x="115" width="115" height="71" as="geometry">
            <mxRectangle width="115" height="71" as="alternateBounds" />
          </mxGeometry>
        </mxCell>
        <mxCell id="2bTAK56nUmkrMSHZuo6N-192" value="&lt;font style=&quot;font-size: 14px;&quot;&gt;Список друзей&lt;/font&gt;" style="shape=partialRectangle;html=1;whiteSpace=wrap;connectable=0;strokeColor=inherit;overflow=hidden;fillColor=none;top=0;left=0;bottom=0;right=0;pointerEvents=1;fontSize=16;" vertex="1" parent="2bTAK56nUmkrMSHZuo6N-189">
          <mxGeometry x="230" width="230" height="71" as="geometry">
            <mxRectangle width="230" height="71" as="alternateBounds" />
          </mxGeometry>
        </mxCell>
        <mxCell id="2bTAK56nUmkrMSHZuo6N-199" style="shape=tableRow;horizontal=0;startSize=0;swimlaneHead=0;swimlaneBody=0;strokeColor=inherit;top=0;left=0;bottom=0;right=0;collapsible=0;dropTarget=0;fillColor=none;points=[[0,0.5],[1,0.5]];portConstraint=eastwest;fontSize=16;" vertex="1" parent="2bTAK56nUmkrMSHZuo6N-49">
          <mxGeometry y="391" width="460" height="71" as="geometry" />
        </mxCell>
        <mxCell id="2bTAK56nUmkrMSHZuo6N-200" style="shape=partialRectangle;html=1;whiteSpace=wrap;connectable=0;strokeColor=inherit;overflow=hidden;fillColor=none;top=0;left=0;bottom=0;right=0;pointerEvents=1;fontSize=16;" vertex="1" parent="2bTAK56nUmkrMSHZuo6N-199">
          <mxGeometry width="115" height="71" as="geometry">
            <mxRectangle width="115" height="71" as="alternateBounds" />
          </mxGeometry>
        </mxCell>
        <mxCell id="2bTAK56nUmkrMSHZuo6N-201" value="is_available" style="shape=partialRectangle;html=1;whiteSpace=wrap;connectable=0;strokeColor=inherit;overflow=hidden;fillColor=none;top=0;left=0;bottom=0;right=0;pointerEvents=1;fontSize=14;" vertex="1" parent="2bTAK56nUmkrMSHZuo6N-199">
          <mxGeometry x="115" width="115" height="71" as="geometry">
            <mxRectangle width="115" height="71" as="alternateBounds" />
          </mxGeometry>
        </mxCell>
        <mxCell id="2bTAK56nUmkrMSHZuo6N-202" value="&lt;font style=&quot;font-size: 14px;&quot;&gt;Разрешение получать посты&lt;/font&gt;" style="shape=partialRectangle;html=1;whiteSpace=wrap;connectable=0;strokeColor=inherit;overflow=hidden;fillColor=none;top=0;left=0;bottom=0;right=0;pointerEvents=1;fontSize=16;" vertex="1" parent="2bTAK56nUmkrMSHZuo6N-199">
          <mxGeometry x="230" width="230" height="71" as="geometry">
            <mxRectangle width="230" height="71" as="alternateBounds" />
          </mxGeometry>
        </mxCell>
        <mxCell id="2bTAK56nUmkrMSHZuo6N-72" style="shape=tableRow;horizontal=0;startSize=0;swimlaneHead=0;swimlaneBody=0;strokeColor=inherit;top=0;left=0;bottom=0;right=0;collapsible=0;dropTarget=0;fillColor=none;points=[[0,0.5],[1,0.5]];portConstraint=eastwest;fontSize=16;" vertex="1" parent="2bTAK56nUmkrMSHZuo6N-49">
          <mxGeometry y="462" width="460" height="71" as="geometry" />
        </mxCell>
        <mxCell id="2bTAK56nUmkrMSHZuo6N-73" style="shape=partialRectangle;html=1;whiteSpace=wrap;connectable=0;strokeColor=inherit;overflow=hidden;fillColor=none;top=0;left=0;bottom=0;right=0;pointerEvents=1;fontSize=16;" vertex="1" parent="2bTAK56nUmkrMSHZuo6N-72">
          <mxGeometry width="115" height="71" as="geometry">
            <mxRectangle width="115" height="71" as="alternateBounds" />
          </mxGeometry>
        </mxCell>
        <mxCell id="2bTAK56nUmkrMSHZuo6N-74" value="user_gender" style="shape=partialRectangle;html=1;whiteSpace=wrap;connectable=0;strokeColor=inherit;overflow=hidden;fillColor=none;top=0;left=0;bottom=0;right=0;pointerEvents=1;fontSize=14;" vertex="1" parent="2bTAK56nUmkrMSHZuo6N-72">
          <mxGeometry x="115" width="115" height="71" as="geometry">
            <mxRectangle width="115" height="71" as="alternateBounds" />
          </mxGeometry>
        </mxCell>
        <mxCell id="2bTAK56nUmkrMSHZuo6N-75" value="&lt;font style=&quot;font-size: 14px;&quot;&gt;Пол пользователя&lt;/font&gt;" style="shape=partialRectangle;html=1;whiteSpace=wrap;connectable=0;strokeColor=inherit;overflow=hidden;fillColor=none;top=0;left=0;bottom=0;right=0;pointerEvents=1;fontSize=16;" vertex="1" parent="2bTAK56nUmkrMSHZuo6N-72">
          <mxGeometry x="230" width="230" height="71" as="geometry">
            <mxRectangle width="230" height="71" as="alternateBounds" />
          </mxGeometry>
        </mxCell>
        <mxCell id="2bTAK56nUmkrMSHZuo6N-80" style="shape=tableRow;horizontal=0;startSize=0;swimlaneHead=0;swimlaneBody=0;strokeColor=inherit;top=0;left=0;bottom=0;right=0;collapsible=0;dropTarget=0;fillColor=none;points=[[0,0.5],[1,0.5]];portConstraint=eastwest;fontSize=16;" vertex="1" parent="2bTAK56nUmkrMSHZuo6N-49">
          <mxGeometry y="533" width="460" height="70" as="geometry" />
        </mxCell>
        <mxCell id="2bTAK56nUmkrMSHZuo6N-81" style="shape=partialRectangle;html=1;whiteSpace=wrap;connectable=0;strokeColor=inherit;overflow=hidden;fillColor=none;top=0;left=0;bottom=0;right=0;pointerEvents=1;fontSize=16;" vertex="1" parent="2bTAK56nUmkrMSHZuo6N-80">
          <mxGeometry width="115" height="70" as="geometry">
            <mxRectangle width="115" height="70" as="alternateBounds" />
          </mxGeometry>
        </mxCell>
        <mxCell id="2bTAK56nUmkrMSHZuo6N-82" value="user_country" style="shape=partialRectangle;html=1;whiteSpace=wrap;connectable=0;strokeColor=inherit;overflow=hidden;fillColor=none;top=0;left=0;bottom=0;right=0;pointerEvents=1;fontSize=14;" vertex="1" parent="2bTAK56nUmkrMSHZuo6N-80">
          <mxGeometry x="115" width="115" height="70" as="geometry">
            <mxRectangle width="115" height="70" as="alternateBounds" />
          </mxGeometry>
        </mxCell>
        <mxCell id="2bTAK56nUmkrMSHZuo6N-83" value="&lt;font style=&quot;font-size: 14px;&quot;&gt;Страна пользователя&lt;/font&gt;" style="shape=partialRectangle;html=1;whiteSpace=wrap;connectable=0;strokeColor=inherit;overflow=hidden;fillColor=none;top=0;left=0;bottom=0;right=0;pointerEvents=1;fontSize=16;" vertex="1" parent="2bTAK56nUmkrMSHZuo6N-80">
          <mxGeometry x="230" width="230" height="70" as="geometry">
            <mxRectangle width="230" height="70" as="alternateBounds" />
          </mxGeometry>
        </mxCell>
        <mxCell id="2bTAK56nUmkrMSHZuo6N-84" style="shape=tableRow;horizontal=0;startSize=0;swimlaneHead=0;swimlaneBody=0;strokeColor=inherit;top=0;left=0;bottom=0;right=0;collapsible=0;dropTarget=0;fillColor=none;points=[[0,0.5],[1,0.5]];portConstraint=eastwest;fontSize=16;" vertex="1" parent="2bTAK56nUmkrMSHZuo6N-49">
          <mxGeometry y="603" width="460" height="71" as="geometry" />
        </mxCell>
        <mxCell id="2bTAK56nUmkrMSHZuo6N-85" style="shape=partialRectangle;html=1;whiteSpace=wrap;connectable=0;strokeColor=inherit;overflow=hidden;fillColor=none;top=0;left=0;bottom=0;right=0;pointerEvents=1;fontSize=16;" vertex="1" parent="2bTAK56nUmkrMSHZuo6N-84">
          <mxGeometry width="115" height="71" as="geometry">
            <mxRectangle width="115" height="71" as="alternateBounds" />
          </mxGeometry>
        </mxCell>
        <mxCell id="2bTAK56nUmkrMSHZuo6N-86" value="user_number" style="shape=partialRectangle;html=1;whiteSpace=wrap;connectable=0;strokeColor=inherit;overflow=hidden;fillColor=none;top=0;left=0;bottom=0;right=0;pointerEvents=1;fontSize=14;" vertex="1" parent="2bTAK56nUmkrMSHZuo6N-84">
          <mxGeometry x="115" width="115" height="71" as="geometry">
            <mxRectangle width="115" height="71" as="alternateBounds" />
          </mxGeometry>
        </mxCell>
        <mxCell id="2bTAK56nUmkrMSHZuo6N-87" value="&lt;font style=&quot;font-size: 14px;&quot;&gt;Номер телефона пользователя&lt;/font&gt;" style="shape=partialRectangle;html=1;whiteSpace=wrap;connectable=0;strokeColor=inherit;overflow=hidden;fillColor=none;top=0;left=0;bottom=0;right=0;pointerEvents=1;fontSize=16;" vertex="1" parent="2bTAK56nUmkrMSHZuo6N-84">
          <mxGeometry x="230" width="230" height="71" as="geometry">
            <mxRectangle width="230" height="71" as="alternateBounds" />
          </mxGeometry>
        </mxCell>
        <mxCell id="2bTAK56nUmkrMSHZuo6N-88" value="" style="shape=table;startSize=0;container=1;collapsible=0;childLayout=tableLayout;fontSize=14;" vertex="1" parent="1">
          <mxGeometry x="440" y="1290" width="460" height="344" as="geometry" />
        </mxCell>
        <mxCell id="2bTAK56nUmkrMSHZuo6N-89" value="" style="shape=tableRow;horizontal=0;startSize=0;swimlaneHead=0;swimlaneBody=0;strokeColor=inherit;top=0;left=0;bottom=0;right=0;collapsible=0;dropTarget=0;fillColor=none;points=[[0,0.5],[1,0.5]];portConstraint=eastwest;fontSize=16;" vertex="1" parent="2bTAK56nUmkrMSHZuo6N-88">
          <mxGeometry width="460" height="50" as="geometry" />
        </mxCell>
        <mxCell id="2bTAK56nUmkrMSHZuo6N-90" value="Родительская сущность" style="shape=partialRectangle;html=1;whiteSpace=wrap;connectable=0;strokeColor=inherit;overflow=hidden;fillColor=none;top=0;left=0;bottom=0;right=0;pointerEvents=1;fontSize=16;" vertex="1" parent="2bTAK56nUmkrMSHZuo6N-89">
          <mxGeometry width="115" height="50" as="geometry">
            <mxRectangle width="115" height="50" as="alternateBounds" />
          </mxGeometry>
        </mxCell>
        <mxCell id="2bTAK56nUmkrMSHZuo6N-91" value="Атрибут" style="shape=partialRectangle;html=1;whiteSpace=wrap;connectable=0;strokeColor=inherit;overflow=hidden;fillColor=none;top=0;left=0;bottom=0;right=0;pointerEvents=1;fontSize=16;" vertex="1" parent="2bTAK56nUmkrMSHZuo6N-89">
          <mxGeometry x="115" width="115" height="50" as="geometry">
            <mxRectangle width="115" height="50" as="alternateBounds" />
          </mxGeometry>
        </mxCell>
        <mxCell id="2bTAK56nUmkrMSHZuo6N-92" value="Описание" style="shape=partialRectangle;html=1;whiteSpace=wrap;connectable=0;strokeColor=inherit;overflow=hidden;fillColor=none;top=0;left=0;bottom=0;right=0;pointerEvents=1;fontSize=16;" vertex="1" parent="2bTAK56nUmkrMSHZuo6N-89">
          <mxGeometry x="230" width="230" height="50" as="geometry">
            <mxRectangle width="230" height="50" as="alternateBounds" />
          </mxGeometry>
        </mxCell>
        <mxCell id="2bTAK56nUmkrMSHZuo6N-93" value="" style="shape=tableRow;horizontal=0;startSize=0;swimlaneHead=0;swimlaneBody=0;strokeColor=inherit;top=0;left=0;bottom=0;right=0;collapsible=0;dropTarget=0;fillColor=none;points=[[0,0.5],[1,0.5]];portConstraint=eastwest;fontSize=16;" vertex="1" parent="2bTAK56nUmkrMSHZuo6N-88">
          <mxGeometry y="50" width="460" height="66" as="geometry" />
        </mxCell>
        <mxCell id="2bTAK56nUmkrMSHZuo6N-94" value="Сообщество" style="shape=partialRectangle;html=1;whiteSpace=wrap;connectable=0;strokeColor=inherit;overflow=hidden;fillColor=none;top=0;left=0;bottom=0;right=0;pointerEvents=1;fontSize=14;" vertex="1" parent="2bTAK56nUmkrMSHZuo6N-93">
          <mxGeometry width="115" height="66" as="geometry">
            <mxRectangle width="115" height="66" as="alternateBounds" />
          </mxGeometry>
        </mxCell>
        <mxCell id="2bTAK56nUmkrMSHZuo6N-95" value="" style="shape=partialRectangle;html=1;whiteSpace=wrap;connectable=0;strokeColor=inherit;overflow=hidden;fillColor=none;top=0;left=0;bottom=0;right=0;pointerEvents=1;fontSize=16;" vertex="1" parent="2bTAK56nUmkrMSHZuo6N-93">
          <mxGeometry x="115" width="115" height="66" as="geometry">
            <mxRectangle width="115" height="66" as="alternateBounds" />
          </mxGeometry>
        </mxCell>
        <mxCell id="2bTAK56nUmkrMSHZuo6N-96" value="&lt;div style=&quot;font-size: 14px;&quot;&gt;Публикует посты.&lt;/div&gt;" style="shape=partialRectangle;html=1;whiteSpace=wrap;connectable=0;strokeColor=inherit;overflow=hidden;fillColor=none;top=0;left=0;bottom=0;right=0;pointerEvents=1;fontSize=16;" vertex="1" parent="2bTAK56nUmkrMSHZuo6N-93">
          <mxGeometry x="230" width="230" height="66" as="geometry">
            <mxRectangle width="230" height="66" as="alternateBounds" />
          </mxGeometry>
        </mxCell>
        <mxCell id="2bTAK56nUmkrMSHZuo6N-97" value="" style="shape=tableRow;horizontal=0;startSize=0;swimlaneHead=0;swimlaneBody=0;strokeColor=inherit;top=0;left=0;bottom=0;right=0;collapsible=0;dropTarget=0;fillColor=none;points=[[0,0.5],[1,0.5]];portConstraint=eastwest;fontSize=16;" vertex="1" parent="2bTAK56nUmkrMSHZuo6N-88">
          <mxGeometry y="116" width="460" height="76" as="geometry" />
        </mxCell>
        <mxCell id="2bTAK56nUmkrMSHZuo6N-98" value="" style="shape=partialRectangle;html=1;whiteSpace=wrap;connectable=0;strokeColor=inherit;overflow=hidden;fillColor=none;top=0;left=0;bottom=0;right=0;pointerEvents=1;fontSize=16;" vertex="1" parent="2bTAK56nUmkrMSHZuo6N-97">
          <mxGeometry width="115" height="76" as="geometry">
            <mxRectangle width="115" height="76" as="alternateBounds" />
          </mxGeometry>
        </mxCell>
        <mxCell id="2bTAK56nUmkrMSHZuo6N-99" value="group_name" style="shape=partialRectangle;html=1;whiteSpace=wrap;connectable=0;strokeColor=inherit;overflow=hidden;fillColor=none;top=0;left=0;bottom=0;right=0;pointerEvents=1;fontSize=14;" vertex="1" parent="2bTAK56nUmkrMSHZuo6N-97">
          <mxGeometry x="115" width="115" height="76" as="geometry">
            <mxRectangle width="115" height="76" as="alternateBounds" />
          </mxGeometry>
        </mxCell>
        <mxCell id="2bTAK56nUmkrMSHZuo6N-100" value="&lt;span style=&quot;font-size: 14px;&quot;&gt;Название сообщества&lt;/span&gt;" style="shape=partialRectangle;html=1;whiteSpace=wrap;connectable=0;strokeColor=inherit;overflow=hidden;fillColor=none;top=0;left=0;bottom=0;right=0;pointerEvents=1;fontSize=16;" vertex="1" parent="2bTAK56nUmkrMSHZuo6N-97">
          <mxGeometry x="230" width="230" height="76" as="geometry">
            <mxRectangle width="230" height="76" as="alternateBounds" />
          </mxGeometry>
        </mxCell>
        <mxCell id="2bTAK56nUmkrMSHZuo6N-101" style="shape=tableRow;horizontal=0;startSize=0;swimlaneHead=0;swimlaneBody=0;strokeColor=inherit;top=0;left=0;bottom=0;right=0;collapsible=0;dropTarget=0;fillColor=none;points=[[0,0.5],[1,0.5]];portConstraint=eastwest;fontSize=16;" vertex="1" parent="2bTAK56nUmkrMSHZuo6N-88">
          <mxGeometry y="192" width="460" height="76" as="geometry" />
        </mxCell>
        <mxCell id="2bTAK56nUmkrMSHZuo6N-102" style="shape=partialRectangle;html=1;whiteSpace=wrap;connectable=0;strokeColor=inherit;overflow=hidden;fillColor=none;top=0;left=0;bottom=0;right=0;pointerEvents=1;fontSize=16;" vertex="1" parent="2bTAK56nUmkrMSHZuo6N-101">
          <mxGeometry width="115" height="76" as="geometry">
            <mxRectangle width="115" height="76" as="alternateBounds" />
          </mxGeometry>
        </mxCell>
        <mxCell id="2bTAK56nUmkrMSHZuo6N-103" value="group_avatar" style="shape=partialRectangle;html=1;whiteSpace=wrap;connectable=0;strokeColor=inherit;overflow=hidden;fillColor=none;top=0;left=0;bottom=0;right=0;pointerEvents=1;fontSize=14;" vertex="1" parent="2bTAK56nUmkrMSHZuo6N-101">
          <mxGeometry x="115" width="115" height="76" as="geometry">
            <mxRectangle width="115" height="76" as="alternateBounds" />
          </mxGeometry>
        </mxCell>
        <mxCell id="2bTAK56nUmkrMSHZuo6N-104" value="&lt;font style=&quot;font-size: 14px;&quot;&gt;Фотография сообщества&lt;/font&gt;" style="shape=partialRectangle;html=1;whiteSpace=wrap;connectable=0;strokeColor=inherit;overflow=hidden;fillColor=none;top=0;left=0;bottom=0;right=0;pointerEvents=1;fontSize=16;" vertex="1" parent="2bTAK56nUmkrMSHZuo6N-101">
          <mxGeometry x="230" width="230" height="76" as="geometry">
            <mxRectangle width="230" height="76" as="alternateBounds" />
          </mxGeometry>
        </mxCell>
        <mxCell id="2bTAK56nUmkrMSHZuo6N-105" style="shape=tableRow;horizontal=0;startSize=0;swimlaneHead=0;swimlaneBody=0;strokeColor=inherit;top=0;left=0;bottom=0;right=0;collapsible=0;dropTarget=0;fillColor=none;points=[[0,0.5],[1,0.5]];portConstraint=eastwest;fontSize=16;" vertex="1" parent="2bTAK56nUmkrMSHZuo6N-88">
          <mxGeometry y="268" width="460" height="76" as="geometry" />
        </mxCell>
        <mxCell id="2bTAK56nUmkrMSHZuo6N-106" style="shape=partialRectangle;html=1;whiteSpace=wrap;connectable=0;strokeColor=inherit;overflow=hidden;fillColor=none;top=0;left=0;bottom=0;right=0;pointerEvents=1;fontSize=16;" vertex="1" parent="2bTAK56nUmkrMSHZuo6N-105">
          <mxGeometry width="115" height="76" as="geometry">
            <mxRectangle width="115" height="76" as="alternateBounds" />
          </mxGeometry>
        </mxCell>
        <mxCell id="2bTAK56nUmkrMSHZuo6N-107" value="count_posts" style="shape=partialRectangle;html=1;whiteSpace=wrap;connectable=0;strokeColor=inherit;overflow=hidden;fillColor=none;top=0;left=0;bottom=0;right=0;pointerEvents=1;fontSize=14;" vertex="1" parent="2bTAK56nUmkrMSHZuo6N-105">
          <mxGeometry x="115" width="115" height="76" as="geometry">
            <mxRectangle width="115" height="76" as="alternateBounds" />
          </mxGeometry>
        </mxCell>
        <mxCell id="2bTAK56nUmkrMSHZuo6N-108" value="&lt;font style=&quot;font-size: 14px;&quot;&gt;Количество публикаций&lt;/font&gt;" style="shape=partialRectangle;html=1;whiteSpace=wrap;connectable=0;strokeColor=inherit;overflow=hidden;fillColor=none;top=0;left=0;bottom=0;right=0;pointerEvents=1;fontSize=16;" vertex="1" parent="2bTAK56nUmkrMSHZuo6N-105">
          <mxGeometry x="230" width="230" height="76" as="geometry">
            <mxRectangle width="230" height="76" as="alternateBounds" />
          </mxGeometry>
        </mxCell>
        <mxCell id="2bTAK56nUmkrMSHZuo6N-121" value="Объект Сообщество" style="text;html=1;align=left;verticalAlign=middle;whiteSpace=wrap;rounded=0;fontStyle=1" vertex="1" parent="1">
          <mxGeometry x="440" y="1250" width="190" height="30" as="geometry" />
        </mxCell>
        <mxCell id="2bTAK56nUmkrMSHZuo6N-124" value="" style="shape=table;startSize=0;container=1;collapsible=0;childLayout=tableLayout;fontSize=14;" vertex="1" parent="1">
          <mxGeometry x="1040" y="1140" width="460" height="344" as="geometry" />
        </mxCell>
        <mxCell id="2bTAK56nUmkrMSHZuo6N-125" value="" style="shape=tableRow;horizontal=0;startSize=0;swimlaneHead=0;swimlaneBody=0;strokeColor=inherit;top=0;left=0;bottom=0;right=0;collapsible=0;dropTarget=0;fillColor=none;points=[[0,0.5],[1,0.5]];portConstraint=eastwest;fontSize=16;" vertex="1" parent="2bTAK56nUmkrMSHZuo6N-124">
          <mxGeometry width="460" height="50" as="geometry" />
        </mxCell>
        <mxCell id="2bTAK56nUmkrMSHZuo6N-126" value="Дочерняя сущность" style="shape=partialRectangle;html=1;whiteSpace=wrap;connectable=0;strokeColor=inherit;overflow=hidden;fillColor=none;top=0;left=0;bottom=0;right=0;pointerEvents=1;fontSize=16;" vertex="1" parent="2bTAK56nUmkrMSHZuo6N-125">
          <mxGeometry width="115" height="50" as="geometry">
            <mxRectangle width="115" height="50" as="alternateBounds" />
          </mxGeometry>
        </mxCell>
        <mxCell id="2bTAK56nUmkrMSHZuo6N-127" value="Атрибут" style="shape=partialRectangle;html=1;whiteSpace=wrap;connectable=0;strokeColor=inherit;overflow=hidden;fillColor=none;top=0;left=0;bottom=0;right=0;pointerEvents=1;fontSize=16;" vertex="1" parent="2bTAK56nUmkrMSHZuo6N-125">
          <mxGeometry x="115" width="115" height="50" as="geometry">
            <mxRectangle width="115" height="50" as="alternateBounds" />
          </mxGeometry>
        </mxCell>
        <mxCell id="2bTAK56nUmkrMSHZuo6N-128" value="Описание" style="shape=partialRectangle;html=1;whiteSpace=wrap;connectable=0;strokeColor=inherit;overflow=hidden;fillColor=none;top=0;left=0;bottom=0;right=0;pointerEvents=1;fontSize=16;" vertex="1" parent="2bTAK56nUmkrMSHZuo6N-125">
          <mxGeometry x="230" width="230" height="50" as="geometry">
            <mxRectangle width="230" height="50" as="alternateBounds" />
          </mxGeometry>
        </mxCell>
        <mxCell id="2bTAK56nUmkrMSHZuo6N-129" value="" style="shape=tableRow;horizontal=0;startSize=0;swimlaneHead=0;swimlaneBody=0;strokeColor=inherit;top=0;left=0;bottom=0;right=0;collapsible=0;dropTarget=0;fillColor=none;points=[[0,0.5],[1,0.5]];portConstraint=eastwest;fontSize=16;" vertex="1" parent="2bTAK56nUmkrMSHZuo6N-124">
          <mxGeometry y="50" width="460" height="66" as="geometry" />
        </mxCell>
        <mxCell id="2bTAK56nUmkrMSHZuo6N-130" value="Пост" style="shape=partialRectangle;html=1;whiteSpace=wrap;connectable=0;strokeColor=inherit;overflow=hidden;fillColor=none;top=0;left=0;bottom=0;right=0;pointerEvents=1;fontSize=14;" vertex="1" parent="2bTAK56nUmkrMSHZuo6N-129">
          <mxGeometry width="115" height="66" as="geometry">
            <mxRectangle width="115" height="66" as="alternateBounds" />
          </mxGeometry>
        </mxCell>
        <mxCell id="2bTAK56nUmkrMSHZuo6N-131" value="" style="shape=partialRectangle;html=1;whiteSpace=wrap;connectable=0;strokeColor=inherit;overflow=hidden;fillColor=none;top=0;left=0;bottom=0;right=0;pointerEvents=1;fontSize=16;" vertex="1" parent="2bTAK56nUmkrMSHZuo6N-129">
          <mxGeometry x="115" width="115" height="66" as="geometry">
            <mxRectangle width="115" height="66" as="alternateBounds" />
          </mxGeometry>
        </mxCell>
        <mxCell id="2bTAK56nUmkrMSHZuo6N-132" value="&lt;div style=&quot;font-size: 14px;&quot;&gt;Публикуется сообществом.&lt;/div&gt;" style="shape=partialRectangle;html=1;whiteSpace=wrap;connectable=0;strokeColor=inherit;overflow=hidden;fillColor=none;top=0;left=0;bottom=0;right=0;pointerEvents=1;fontSize=16;" vertex="1" parent="2bTAK56nUmkrMSHZuo6N-129">
          <mxGeometry x="230" width="230" height="66" as="geometry">
            <mxRectangle width="230" height="66" as="alternateBounds" />
          </mxGeometry>
        </mxCell>
        <mxCell id="2bTAK56nUmkrMSHZuo6N-133" value="" style="shape=tableRow;horizontal=0;startSize=0;swimlaneHead=0;swimlaneBody=0;strokeColor=inherit;top=0;left=0;bottom=0;right=0;collapsible=0;dropTarget=0;fillColor=none;points=[[0,0.5],[1,0.5]];portConstraint=eastwest;fontSize=16;" vertex="1" parent="2bTAK56nUmkrMSHZuo6N-124">
          <mxGeometry y="116" width="460" height="76" as="geometry" />
        </mxCell>
        <mxCell id="2bTAK56nUmkrMSHZuo6N-134" value="" style="shape=partialRectangle;html=1;whiteSpace=wrap;connectable=0;strokeColor=inherit;overflow=hidden;fillColor=none;top=0;left=0;bottom=0;right=0;pointerEvents=1;fontSize=16;" vertex="1" parent="2bTAK56nUmkrMSHZuo6N-133">
          <mxGeometry width="115" height="76" as="geometry">
            <mxRectangle width="115" height="76" as="alternateBounds" />
          </mxGeometry>
        </mxCell>
        <mxCell id="2bTAK56nUmkrMSHZuo6N-135" value="content" style="shape=partialRectangle;html=1;whiteSpace=wrap;connectable=0;strokeColor=inherit;overflow=hidden;fillColor=none;top=0;left=0;bottom=0;right=0;pointerEvents=1;fontSize=14;" vertex="1" parent="2bTAK56nUmkrMSHZuo6N-133">
          <mxGeometry x="115" width="115" height="76" as="geometry">
            <mxRectangle width="115" height="76" as="alternateBounds" />
          </mxGeometry>
        </mxCell>
        <mxCell id="2bTAK56nUmkrMSHZuo6N-136" value="&lt;span style=&quot;font-size: 14px;&quot;&gt;Контент поста&lt;/span&gt;" style="shape=partialRectangle;html=1;whiteSpace=wrap;connectable=0;strokeColor=inherit;overflow=hidden;fillColor=none;top=0;left=0;bottom=0;right=0;pointerEvents=1;fontSize=16;" vertex="1" parent="2bTAK56nUmkrMSHZuo6N-133">
          <mxGeometry x="230" width="230" height="76" as="geometry">
            <mxRectangle width="230" height="76" as="alternateBounds" />
          </mxGeometry>
        </mxCell>
        <mxCell id="2bTAK56nUmkrMSHZuo6N-137" style="shape=tableRow;horizontal=0;startSize=0;swimlaneHead=0;swimlaneBody=0;strokeColor=inherit;top=0;left=0;bottom=0;right=0;collapsible=0;dropTarget=0;fillColor=none;points=[[0,0.5],[1,0.5]];portConstraint=eastwest;fontSize=16;" vertex="1" parent="2bTAK56nUmkrMSHZuo6N-124">
          <mxGeometry y="192" width="460" height="76" as="geometry" />
        </mxCell>
        <mxCell id="2bTAK56nUmkrMSHZuo6N-138" style="shape=partialRectangle;html=1;whiteSpace=wrap;connectable=0;strokeColor=inherit;overflow=hidden;fillColor=none;top=0;left=0;bottom=0;right=0;pointerEvents=1;fontSize=16;" vertex="1" parent="2bTAK56nUmkrMSHZuo6N-137">
          <mxGeometry width="115" height="76" as="geometry">
            <mxRectangle width="115" height="76" as="alternateBounds" />
          </mxGeometry>
        </mxCell>
        <mxCell id="2bTAK56nUmkrMSHZuo6N-139" value="post_time" style="shape=partialRectangle;html=1;whiteSpace=wrap;connectable=0;strokeColor=inherit;overflow=hidden;fillColor=none;top=0;left=0;bottom=0;right=0;pointerEvents=1;fontSize=14;" vertex="1" parent="2bTAK56nUmkrMSHZuo6N-137">
          <mxGeometry x="115" width="115" height="76" as="geometry">
            <mxRectangle width="115" height="76" as="alternateBounds" />
          </mxGeometry>
        </mxCell>
        <mxCell id="2bTAK56nUmkrMSHZuo6N-140" value="&lt;font style=&quot;font-size: 14px;&quot;&gt;Время публикации&lt;/font&gt;" style="shape=partialRectangle;html=1;whiteSpace=wrap;connectable=0;strokeColor=inherit;overflow=hidden;fillColor=none;top=0;left=0;bottom=0;right=0;pointerEvents=1;fontSize=16;" vertex="1" parent="2bTAK56nUmkrMSHZuo6N-137">
          <mxGeometry x="230" width="230" height="76" as="geometry">
            <mxRectangle width="230" height="76" as="alternateBounds" />
          </mxGeometry>
        </mxCell>
        <mxCell id="2bTAK56nUmkrMSHZuo6N-141" style="shape=tableRow;horizontal=0;startSize=0;swimlaneHead=0;swimlaneBody=0;strokeColor=inherit;top=0;left=0;bottom=0;right=0;collapsible=0;dropTarget=0;fillColor=none;points=[[0,0.5],[1,0.5]];portConstraint=eastwest;fontSize=16;" vertex="1" parent="2bTAK56nUmkrMSHZuo6N-124">
          <mxGeometry y="268" width="460" height="76" as="geometry" />
        </mxCell>
        <mxCell id="2bTAK56nUmkrMSHZuo6N-142" style="shape=partialRectangle;html=1;whiteSpace=wrap;connectable=0;strokeColor=inherit;overflow=hidden;fillColor=none;top=0;left=0;bottom=0;right=0;pointerEvents=1;fontSize=16;" vertex="1" parent="2bTAK56nUmkrMSHZuo6N-141">
          <mxGeometry width="115" height="76" as="geometry">
            <mxRectangle width="115" height="76" as="alternateBounds" />
          </mxGeometry>
        </mxCell>
        <mxCell id="2bTAK56nUmkrMSHZuo6N-143" value="count_likes" style="shape=partialRectangle;html=1;whiteSpace=wrap;connectable=0;strokeColor=inherit;overflow=hidden;fillColor=none;top=0;left=0;bottom=0;right=0;pointerEvents=1;fontSize=14;" vertex="1" parent="2bTAK56nUmkrMSHZuo6N-141">
          <mxGeometry x="115" width="115" height="76" as="geometry">
            <mxRectangle width="115" height="76" as="alternateBounds" />
          </mxGeometry>
        </mxCell>
        <mxCell id="2bTAK56nUmkrMSHZuo6N-144" value="&lt;font style=&quot;font-size: 14px;&quot;&gt;Количество лайков в посте&lt;/font&gt;" style="shape=partialRectangle;html=1;whiteSpace=wrap;connectable=0;strokeColor=inherit;overflow=hidden;fillColor=none;top=0;left=0;bottom=0;right=0;pointerEvents=1;fontSize=16;" vertex="1" parent="2bTAK56nUmkrMSHZuo6N-141">
          <mxGeometry x="230" width="230" height="76" as="geometry">
            <mxRectangle width="230" height="76" as="alternateBounds" />
          </mxGeometry>
        </mxCell>
        <mxCell id="2bTAK56nUmkrMSHZuo6N-145" value="Объект Пост" style="text;html=1;align=left;verticalAlign=middle;whiteSpace=wrap;rounded=0;fontStyle=1" vertex="1" parent="1">
          <mxGeometry x="1040" y="1090" width="190" height="30" as="geometry" />
        </mxCell>
        <mxCell id="2bTAK56nUmkrMSHZuo6N-154" value="Сообщение" style="rounded=0;whiteSpace=wrap;html=1;" vertex="1" parent="1">
          <mxGeometry x="1040" y="220" width="120" height="60" as="geometry" />
        </mxCell>
        <mxCell id="2bTAK56nUmkrMSHZuo6N-155" value="1. Отправитель&lt;div&gt;2. Получатель&lt;/div&gt;&lt;div&gt;3. Дата отправки&lt;/div&gt;&lt;div&gt;4. Статус «отправлено»&lt;/div&gt;&lt;div&gt;5. Статус «прочитано»&lt;/div&gt;" style="text;html=1;align=left;verticalAlign=middle;whiteSpace=wrap;rounded=0;" vertex="1" parent="1">
          <mxGeometry x="1040" y="320" width="160" height="30" as="geometry" />
        </mxCell>
        <mxCell id="2bTAK56nUmkrMSHZuo6N-159" value="" style="shape=table;startSize=0;container=1;collapsible=0;childLayout=tableLayout;fontSize=14;" vertex="1" parent="1">
          <mxGeometry x="1050" y="480" width="460" height="506" as="geometry" />
        </mxCell>
        <mxCell id="2bTAK56nUmkrMSHZuo6N-160" value="" style="shape=tableRow;horizontal=0;startSize=0;swimlaneHead=0;swimlaneBody=0;strokeColor=inherit;top=0;left=0;bottom=0;right=0;collapsible=0;dropTarget=0;fillColor=none;points=[[0,0.5],[1,0.5]];portConstraint=eastwest;fontSize=16;" vertex="1" parent="2bTAK56nUmkrMSHZuo6N-159">
          <mxGeometry width="460" height="60" as="geometry" />
        </mxCell>
        <mxCell id="2bTAK56nUmkrMSHZuo6N-161" value="Дочерняя сущность" style="shape=partialRectangle;html=1;whiteSpace=wrap;connectable=0;strokeColor=inherit;overflow=hidden;fillColor=none;top=0;left=0;bottom=0;right=0;pointerEvents=1;fontSize=16;" vertex="1" parent="2bTAK56nUmkrMSHZuo6N-160">
          <mxGeometry width="115" height="60" as="geometry">
            <mxRectangle width="115" height="60" as="alternateBounds" />
          </mxGeometry>
        </mxCell>
        <mxCell id="2bTAK56nUmkrMSHZuo6N-162" value="Атрибут" style="shape=partialRectangle;html=1;whiteSpace=wrap;connectable=0;strokeColor=inherit;overflow=hidden;fillColor=none;top=0;left=0;bottom=0;right=0;pointerEvents=1;fontSize=16;" vertex="1" parent="2bTAK56nUmkrMSHZuo6N-160">
          <mxGeometry x="115" width="115" height="60" as="geometry">
            <mxRectangle width="115" height="60" as="alternateBounds" />
          </mxGeometry>
        </mxCell>
        <mxCell id="2bTAK56nUmkrMSHZuo6N-163" value="Описание" style="shape=partialRectangle;html=1;whiteSpace=wrap;connectable=0;strokeColor=inherit;overflow=hidden;fillColor=none;top=0;left=0;bottom=0;right=0;pointerEvents=1;fontSize=16;" vertex="1" parent="2bTAK56nUmkrMSHZuo6N-160">
          <mxGeometry x="230" width="230" height="60" as="geometry">
            <mxRectangle width="230" height="60" as="alternateBounds" />
          </mxGeometry>
        </mxCell>
        <mxCell id="2bTAK56nUmkrMSHZuo6N-164" value="" style="shape=tableRow;horizontal=0;startSize=0;swimlaneHead=0;swimlaneBody=0;strokeColor=inherit;top=0;left=0;bottom=0;right=0;collapsible=0;dropTarget=0;fillColor=none;points=[[0,0.5],[1,0.5]];portConstraint=eastwest;fontSize=16;" vertex="1" parent="2bTAK56nUmkrMSHZuo6N-159">
          <mxGeometry y="60" width="460" height="66" as="geometry" />
        </mxCell>
        <mxCell id="2bTAK56nUmkrMSHZuo6N-165" value="Сообщение" style="shape=partialRectangle;html=1;whiteSpace=wrap;connectable=0;strokeColor=inherit;overflow=hidden;fillColor=none;top=0;left=0;bottom=0;right=0;pointerEvents=1;fontSize=14;" vertex="1" parent="2bTAK56nUmkrMSHZuo6N-164">
          <mxGeometry width="115" height="66" as="geometry">
            <mxRectangle width="115" height="66" as="alternateBounds" />
          </mxGeometry>
        </mxCell>
        <mxCell id="2bTAK56nUmkrMSHZuo6N-166" value="" style="shape=partialRectangle;html=1;whiteSpace=wrap;connectable=0;strokeColor=inherit;overflow=hidden;fillColor=none;top=0;left=0;bottom=0;right=0;pointerEvents=1;fontSize=16;" vertex="1" parent="2bTAK56nUmkrMSHZuo6N-164">
          <mxGeometry x="115" width="115" height="66" as="geometry">
            <mxRectangle width="115" height="66" as="alternateBounds" />
          </mxGeometry>
        </mxCell>
        <mxCell id="2bTAK56nUmkrMSHZuo6N-167" value="&lt;div style=&quot;font-size: 14px;&quot;&gt;Отправляется пользователем другому пользователю.&lt;/div&gt;" style="shape=partialRectangle;html=1;whiteSpace=wrap;connectable=0;strokeColor=inherit;overflow=hidden;fillColor=none;top=0;left=0;bottom=0;right=0;pointerEvents=1;fontSize=16;" vertex="1" parent="2bTAK56nUmkrMSHZuo6N-164">
          <mxGeometry x="230" width="230" height="66" as="geometry">
            <mxRectangle width="230" height="66" as="alternateBounds" />
          </mxGeometry>
        </mxCell>
        <mxCell id="2bTAK56nUmkrMSHZuo6N-168" value="" style="shape=tableRow;horizontal=0;startSize=0;swimlaneHead=0;swimlaneBody=0;strokeColor=inherit;top=0;left=0;bottom=0;right=0;collapsible=0;dropTarget=0;fillColor=none;points=[[0,0.5],[1,0.5]];portConstraint=eastwest;fontSize=16;" vertex="1" parent="2bTAK56nUmkrMSHZuo6N-159">
          <mxGeometry y="126" width="460" height="76" as="geometry" />
        </mxCell>
        <mxCell id="2bTAK56nUmkrMSHZuo6N-169" value="" style="shape=partialRectangle;html=1;whiteSpace=wrap;connectable=0;strokeColor=inherit;overflow=hidden;fillColor=none;top=0;left=0;bottom=0;right=0;pointerEvents=1;fontSize=16;" vertex="1" parent="2bTAK56nUmkrMSHZuo6N-168">
          <mxGeometry width="115" height="76" as="geometry">
            <mxRectangle width="115" height="76" as="alternateBounds" />
          </mxGeometry>
        </mxCell>
        <mxCell id="2bTAK56nUmkrMSHZuo6N-170" value="sender_name" style="shape=partialRectangle;html=1;whiteSpace=wrap;connectable=0;strokeColor=inherit;overflow=hidden;fillColor=none;top=0;left=0;bottom=0;right=0;pointerEvents=1;fontSize=14;" vertex="1" parent="2bTAK56nUmkrMSHZuo6N-168">
          <mxGeometry x="115" width="115" height="76" as="geometry">
            <mxRectangle width="115" height="76" as="alternateBounds" />
          </mxGeometry>
        </mxCell>
        <mxCell id="2bTAK56nUmkrMSHZuo6N-171" value="&lt;span style=&quot;font-size: 14px;&quot;&gt;Имя отправителя&lt;/span&gt;" style="shape=partialRectangle;html=1;whiteSpace=wrap;connectable=0;strokeColor=inherit;overflow=hidden;fillColor=none;top=0;left=0;bottom=0;right=0;pointerEvents=1;fontSize=16;" vertex="1" parent="2bTAK56nUmkrMSHZuo6N-168">
          <mxGeometry x="230" width="230" height="76" as="geometry">
            <mxRectangle width="230" height="76" as="alternateBounds" />
          </mxGeometry>
        </mxCell>
        <mxCell id="2bTAK56nUmkrMSHZuo6N-172" style="shape=tableRow;horizontal=0;startSize=0;swimlaneHead=0;swimlaneBody=0;strokeColor=inherit;top=0;left=0;bottom=0;right=0;collapsible=0;dropTarget=0;fillColor=none;points=[[0,0.5],[1,0.5]];portConstraint=eastwest;fontSize=16;" vertex="1" parent="2bTAK56nUmkrMSHZuo6N-159">
          <mxGeometry y="202" width="460" height="76" as="geometry" />
        </mxCell>
        <mxCell id="2bTAK56nUmkrMSHZuo6N-173" style="shape=partialRectangle;html=1;whiteSpace=wrap;connectable=0;strokeColor=inherit;overflow=hidden;fillColor=none;top=0;left=0;bottom=0;right=0;pointerEvents=1;fontSize=16;" vertex="1" parent="2bTAK56nUmkrMSHZuo6N-172">
          <mxGeometry width="115" height="76" as="geometry">
            <mxRectangle width="115" height="76" as="alternateBounds" />
          </mxGeometry>
        </mxCell>
        <mxCell id="2bTAK56nUmkrMSHZuo6N-174" value="reader_name" style="shape=partialRectangle;html=1;whiteSpace=wrap;connectable=0;strokeColor=inherit;overflow=hidden;fillColor=none;top=0;left=0;bottom=0;right=0;pointerEvents=1;fontSize=14;" vertex="1" parent="2bTAK56nUmkrMSHZuo6N-172">
          <mxGeometry x="115" width="115" height="76" as="geometry">
            <mxRectangle width="115" height="76" as="alternateBounds" />
          </mxGeometry>
        </mxCell>
        <mxCell id="2bTAK56nUmkrMSHZuo6N-175" value="&lt;font style=&quot;font-size: 14px;&quot;&gt;Имя получателя&lt;/font&gt;" style="shape=partialRectangle;html=1;whiteSpace=wrap;connectable=0;strokeColor=inherit;overflow=hidden;fillColor=none;top=0;left=0;bottom=0;right=0;pointerEvents=1;fontSize=16;" vertex="1" parent="2bTAK56nUmkrMSHZuo6N-172">
          <mxGeometry x="230" width="230" height="76" as="geometry">
            <mxRectangle width="230" height="76" as="alternateBounds" />
          </mxGeometry>
        </mxCell>
        <mxCell id="2bTAK56nUmkrMSHZuo6N-176" style="shape=tableRow;horizontal=0;startSize=0;swimlaneHead=0;swimlaneBody=0;strokeColor=inherit;top=0;left=0;bottom=0;right=0;collapsible=0;dropTarget=0;fillColor=none;points=[[0,0.5],[1,0.5]];portConstraint=eastwest;fontSize=16;" vertex="1" parent="2bTAK56nUmkrMSHZuo6N-159">
          <mxGeometry y="278" width="460" height="76" as="geometry" />
        </mxCell>
        <mxCell id="2bTAK56nUmkrMSHZuo6N-177" style="shape=partialRectangle;html=1;whiteSpace=wrap;connectable=0;strokeColor=inherit;overflow=hidden;fillColor=none;top=0;left=0;bottom=0;right=0;pointerEvents=1;fontSize=16;" vertex="1" parent="2bTAK56nUmkrMSHZuo6N-176">
          <mxGeometry width="115" height="76" as="geometry">
            <mxRectangle width="115" height="76" as="alternateBounds" />
          </mxGeometry>
        </mxCell>
        <mxCell id="2bTAK56nUmkrMSHZuo6N-178" value="send_data" style="shape=partialRectangle;html=1;whiteSpace=wrap;connectable=0;strokeColor=inherit;overflow=hidden;fillColor=none;top=0;left=0;bottom=0;right=0;pointerEvents=1;fontSize=14;" vertex="1" parent="2bTAK56nUmkrMSHZuo6N-176">
          <mxGeometry x="115" width="115" height="76" as="geometry">
            <mxRectangle width="115" height="76" as="alternateBounds" />
          </mxGeometry>
        </mxCell>
        <mxCell id="2bTAK56nUmkrMSHZuo6N-179" value="&lt;font style=&quot;font-size: 14px;&quot;&gt;Дата отправки&lt;/font&gt;" style="shape=partialRectangle;html=1;whiteSpace=wrap;connectable=0;strokeColor=inherit;overflow=hidden;fillColor=none;top=0;left=0;bottom=0;right=0;pointerEvents=1;fontSize=16;" vertex="1" parent="2bTAK56nUmkrMSHZuo6N-176">
          <mxGeometry x="230" width="230" height="76" as="geometry">
            <mxRectangle width="230" height="76" as="alternateBounds" />
          </mxGeometry>
        </mxCell>
        <mxCell id="2bTAK56nUmkrMSHZuo6N-185" style="shape=tableRow;horizontal=0;startSize=0;swimlaneHead=0;swimlaneBody=0;strokeColor=inherit;top=0;left=0;bottom=0;right=0;collapsible=0;dropTarget=0;fillColor=none;points=[[0,0.5],[1,0.5]];portConstraint=eastwest;fontSize=16;" vertex="1" parent="2bTAK56nUmkrMSHZuo6N-159">
          <mxGeometry y="354" width="460" height="76" as="geometry" />
        </mxCell>
        <mxCell id="2bTAK56nUmkrMSHZuo6N-186" style="shape=partialRectangle;html=1;whiteSpace=wrap;connectable=0;strokeColor=inherit;overflow=hidden;fillColor=none;top=0;left=0;bottom=0;right=0;pointerEvents=1;fontSize=16;" vertex="1" parent="2bTAK56nUmkrMSHZuo6N-185">
          <mxGeometry width="115" height="76" as="geometry">
            <mxRectangle width="115" height="76" as="alternateBounds" />
          </mxGeometry>
        </mxCell>
        <mxCell id="2bTAK56nUmkrMSHZuo6N-187" value="is_send" style="shape=partialRectangle;html=1;whiteSpace=wrap;connectable=0;strokeColor=inherit;overflow=hidden;fillColor=none;top=0;left=0;bottom=0;right=0;pointerEvents=1;fontSize=14;" vertex="1" parent="2bTAK56nUmkrMSHZuo6N-185">
          <mxGeometry x="115" width="115" height="76" as="geometry">
            <mxRectangle width="115" height="76" as="alternateBounds" />
          </mxGeometry>
        </mxCell>
        <mxCell id="2bTAK56nUmkrMSHZuo6N-188" value="Статус отправлено" style="shape=partialRectangle;html=1;whiteSpace=wrap;connectable=0;strokeColor=inherit;overflow=hidden;fillColor=none;top=0;left=0;bottom=0;right=0;pointerEvents=1;fontSize=14;" vertex="1" parent="2bTAK56nUmkrMSHZuo6N-185">
          <mxGeometry x="230" width="230" height="76" as="geometry">
            <mxRectangle width="230" height="76" as="alternateBounds" />
          </mxGeometry>
        </mxCell>
        <mxCell id="2bTAK56nUmkrMSHZuo6N-181" style="shape=tableRow;horizontal=0;startSize=0;swimlaneHead=0;swimlaneBody=0;strokeColor=inherit;top=0;left=0;bottom=0;right=0;collapsible=0;dropTarget=0;fillColor=none;points=[[0,0.5],[1,0.5]];portConstraint=eastwest;fontSize=16;" vertex="1" parent="2bTAK56nUmkrMSHZuo6N-159">
          <mxGeometry y="430" width="460" height="76" as="geometry" />
        </mxCell>
        <mxCell id="2bTAK56nUmkrMSHZuo6N-182" style="shape=partialRectangle;html=1;whiteSpace=wrap;connectable=0;strokeColor=inherit;overflow=hidden;fillColor=none;top=0;left=0;bottom=0;right=0;pointerEvents=1;fontSize=16;" vertex="1" parent="2bTAK56nUmkrMSHZuo6N-181">
          <mxGeometry width="115" height="76" as="geometry">
            <mxRectangle width="115" height="76" as="alternateBounds" />
          </mxGeometry>
        </mxCell>
        <mxCell id="2bTAK56nUmkrMSHZuo6N-183" value="is_read" style="shape=partialRectangle;html=1;whiteSpace=wrap;connectable=0;strokeColor=inherit;overflow=hidden;fillColor=none;top=0;left=0;bottom=0;right=0;pointerEvents=1;fontSize=14;" vertex="1" parent="2bTAK56nUmkrMSHZuo6N-181">
          <mxGeometry x="115" width="115" height="76" as="geometry">
            <mxRectangle width="115" height="76" as="alternateBounds" />
          </mxGeometry>
        </mxCell>
        <mxCell id="2bTAK56nUmkrMSHZuo6N-184" value="Статус прочитано" style="shape=partialRectangle;html=1;whiteSpace=wrap;connectable=0;strokeColor=inherit;overflow=hidden;fillColor=none;top=0;left=0;bottom=0;right=0;pointerEvents=1;fontSize=14;" vertex="1" parent="2bTAK56nUmkrMSHZuo6N-181">
          <mxGeometry x="230" width="230" height="76" as="geometry">
            <mxRectangle width="230" height="76" as="alternateBounds" />
          </mxGeometry>
        </mxCell>
        <mxCell id="2bTAK56nUmkrMSHZuo6N-180" value="Объект Сообщение" style="text;html=1;align=left;verticalAlign=middle;whiteSpace=wrap;rounded=0;fontStyle=1" vertex="1" parent="1">
          <mxGeometry x="1050" y="440" width="190" height="30" as="geometry" />
        </mxCell>
      </root>
    </mxGraphModel>
  </diagram>
</mxfile>
